<svg xmlns="http://www.w3.org/2000/svg" xmlns:xlink="http://www.w3.org/1999/xlink" width="110" height="46" viewBox="0 0 110 46">
  <defs>
    <clipPath id="clip-path">
      <rect id="Rectangle_8" data-name="Rectangle 8" width="110" height="46" transform="translate(-0.463 0.332)" fill="#d5d5d5"/>
    </clipPath>
  </defs>
  <g id="mizuno" transform="translate(0.463 -0.332)" clip-path="url(#clip-path)">
    <g id="mizuno-2" data-name="mizuno" transform="translate(6.832 0.039)">
      <path id="Path_2133" data-name="Path 2133" d="M98.713,90.19h-10.3v8.541a1.089,1.089,0,0,1-.952,1.2h-1.8c-.566,0-.916-.425-.916-1.2V90.19H80.228v10.165a2.293,2.293,0,0,0,2.4,2.186h7.9a2.293,2.293,0,0,0,2.4-2.186V94a1.1,1.1,0,0,1,.952-1.2h1.8c.562,0,.916.389.916,1.2v8.541h4.514V92.376A2.293,2.293,0,0,0,98.713,90.19Z" transform="translate(-28.283 -56.027)"/>
      <path id="Path_2134" data-name="Path 2134" d="M67.31,99.965l4.66-5.611a2.043,2.043,0,0,0,.7-1.589V90.19H61.982v2.576h5.647L62.9,98.377a2.045,2.045,0,0,0-.708,1.589v2.576H72.886V99.965Z" transform="translate(-22.18 -56.027)"/>
      <path id="Path_2135" data-name="Path 2135" d="M62.957,47.329A114.781,114.781,0,0,1,46.8,49.693h0c-13.409.916-18.985-2.328-5.647-9.917L4.768,48.67s11.679,2.08,18.737,4.058,17.078,6.917,20.043,16.618h9.386c0-16.9,22.158-20.959,28.933-22.8l13.9-3.248,2.682-4.447S76.645,44.577,62.957,47.329ZM47.079,60.915l-.283-.283L42,55.552h0l4.8-.425,4.727-.425Z" transform="translate(-3.042 -38.855)"/>
      <path id="Path_2136" data-name="Path 2136" d="M52.965,102.541h2.116a2.293,2.293,0,0,0,2.4-2.186V90.19H52.965Z" transform="translate(-19.164 -56.027)"/>
      <path id="Path_2137" data-name="Path 2137" d="M29.094,83.824a5.86,5.86,0,0,0-4.691,2.54l-1.376,1.659v-4.2H18.265a5.927,5.927,0,0,0-4.727,2.54L2.174,100.406H8.95l8.891-10.8c1.376-1.836,2.08-1.553,2.93-1.553h2.257l-9.984,12.351h6.74l8.891-10.8c1.412-1.836,2.116-1.553,2.965-1.553H33.9V83.82h-4.8Z" transform="translate(-2.174 -53.896)"/>
      <path id="Path_2138" data-name="Path 2138" d="M41.98,102.541a2.639,2.639,0,0,0,2.753-2.717V90.19L34.572,102.541Z" transform="translate(-13.011 -56.027)"/>
      <path id="Path_2139" data-name="Path 2139" d="M137.429,104.134h-.035a1.53,1.53,0,0,0-1.553,1.589,1.5,1.5,0,0,0,1.553,1.553h.035a1.524,1.524,0,0,0,1.553-1.553A1.552,1.552,0,0,0,137.429,104.134Zm0,2.788h-.035a1.153,1.153,0,0,1-1.129-1.2,1.132,1.132,0,0,1,1.129-1.2h.035a1.126,1.126,0,0,1,1.093,1.2A1.15,1.15,0,0,1,137.429,106.922Z" transform="translate(-46.886 -60.691)"/>
      <path id="Path_2140" data-name="Path 2140" d="M138.576,105.741c0-.389-.248-.5-.668-.5h-.637V106.9h.354V106.2h.177l.106.212.283.5h.425l-.46-.708A.413.413,0,0,0,138.576,105.741Zm-.633.177h-.319v-.389h.283c.142,0,.283.035.283.177C138.19,105.882,138.084,105.918,137.943,105.918Z" transform="translate(-47.364 -61.063)"/>
      <path id="Path_2141" data-name="Path 2141" d="M124.741,90.19H116.66a2.272,2.272,0,0,0-2.4,2.19v7.975a2.271,2.271,0,0,0,2.4,2.186h8.081a2.293,2.293,0,0,0,2.4-2.186V92.376A2.293,2.293,0,0,0,124.741,90.19Zm-2.116,8.537c0,.775-.354,1.2-.916,1.2H119.7c-.566,0-.916-.425-.916-1.2V94c0-.81.354-1.2.916-1.2h2.013c.566,0,.916.389.916,1.2Z" transform="translate(-39.668 -56.027)"/>
    </g>
  </g>
</svg>
