<svg xmlns="http://www.w3.org/2000/svg" xmlns:xlink="http://www.w3.org/1999/xlink" width="122" height="52" viewBox="0 0 122 52">
  <defs>
    <clipPath id="clip-path">
      <rect id="Rectangle_8" data-name="Rectangle 8" width="122" height="52" transform="translate(0.41 0.212)" fill="#d5d5d5"/>
    </clipPath>
  </defs>
  <g id="titleist" transform="translate(-0.41 -0.212)" clip-path="url(#clip-path)">
    <g id="titleist-2" data-name="titleist" transform="translate(0 9.628)">
      <path id="Path_2127" data-name="Path 2127" d="M48.169,104.074s-2.644,1.67-3.757,2.227c-1.113.418-3.34.7-3.9-.278s-.7-1.67.7-2.227c1.252-.557,6.957-1.53,10.3-8.9.7-1.392,1.67-1.113,2.922-.835,1.113.139,1.113.975.417,2.227C54.012,97.536,52.76,99.9,52.2,100.6c-.974,1.67.139,3.9,2.783,2.643a14.15,14.15,0,0,0,5.706-5.287c1.392-2.086,2.5-3.479,3.062-4.314-1.67-.139-2.783.417-2.644-1.113.278-1.252.139-1.67,4.175-1.53.7-.7,1.67-2.365,1.948-2.644.278-.417.7-.974,2.227-.279.7.279.835.7.417,1.392S69.04,91,68.9,91.135a31.954,31.954,0,0,1,3.2.139c.835.139.974.417.974.835-.139,1.392,0,2.087-2.5,1.809-.835,0-3.2-.139-3.2-.139s-2.087,3.2-2.783,4.593c-.7,1.252-1.809,3.34,0,4.174a7.276,7.276,0,0,0,5.427,0c2.644-.975,4.035-1.531,5.287-2.923-.278-1.67,0-5.984,2.644-10.575,2.5-4.314,4.035-5.009,5.288-5.984,1.392-.835,3.618-1.949,5.148-.417,1.67,1.53,1.949,4.453.28,7.653a30.319,30.319,0,0,1-8.907,10.436,3.584,3.584,0,0,0,2.087,2.366,7.477,7.477,0,0,0,7.514-1.392,7.712,7.712,0,0,1,2.088-8.628c2.5-2.087,7.514-2.5,7.653,2.365,0,2.5-1.808,5.009-4.175,6.679a4.739,4.739,0,0,0,6.541-2.364c1.53-3.618,2.086-5.288,2.5-6.262.139-.557.557-1.809,2.365-.835,1.531.835,1.113,1.53.278,3.34-.835,1.948-1.53,4.036-1.392,5.15.278,1.113.557,1.67,2.088,1.53,1.53,0,2.921-1.392,4.034-3.2a53.2,53.2,0,0,0,3.48-6.819c.695-1.67,1.948-1.948,2.364-1.392.557.7,1.531,2.783,2.366,4.315.695,1.67,1.948,5.287,1.67,6.818,1.67-.278,3.2-.974,4.731-3.9a23.808,23.808,0,0,0,1.253-2.643c-.7,0-3.062.139-2.645-1.531.418-1.948,1.113-1.53,2.783-1.67a3.4,3.4,0,0,0,1.392,0,10.42,10.42,0,0,0,.975-1.67c.695-1.53,1.113-2.227,3.34-2.087,1.113,0-.14,2.087-.835,4.035h4.731c1.948,0,4.034,0,3.478,1.53-.557,1.671-.974,1.809-4.453,1.809s-5.426-.139-5.426-.139a17.514,17.514,0,0,0-2.366,4.731c-.139.695-.695,2.364,1.392,2.5,2.227.278,3.062-.14,3.758-.7.835-.557,1.113-.835,1.948-.417s.695,2.086,0,2.783a10.453,10.453,0,0,1-5.428,2.227c-2.227,0-4.034-.418-5.566-2.783a6.172,6.172,0,0,1-5.15,1.392c-.417.417-4.591,3.34-7.514-1.253-.695.557-2.921,2.366-5.287,2.227a6.7,6.7,0,0,1-4.174-2.086,9.263,9.263,0,0,1-6.4,2.086,6.921,6.921,0,0,1-5.148-2.364,11.992,11.992,0,0,1-7.516,2.5,7.916,7.916,0,0,1-6.678-4.036A20.17,20.17,0,0,1,65.7,106.582a7.466,7.466,0,0,1-5.566-2.5c-.417.418-3.757,3.062-7.236,2.923-1.668,0-3.059-.56-4.729-2.926Zm65.54-2.227a2.256,2.256,0,0,0,3.34,1.113c.417-.278.139-1.53-.14-2.643a15.408,15.408,0,0,0-1.113-3.2,37.37,37.37,0,0,1-2.086,4.731ZM92.7,100.04A17.786,17.786,0,0,0,95.063,97.4c1.53-1.948,0-3.2-1.393-2.5C92.418,95.447,91.305,97.952,92.7,100.04ZM85.878,87.933c.278-.7.835-2.366.14-2.5-1.113-.279-2.227.417-4.731,4.035-3.2,4.731-2.644,7.932-2.644,7.932C82.817,94.612,85.461,88.768,85.878,87.933ZM36.9,86.681s2.365-.7,2.644.7a1.975,1.975,0,0,1-1.53,2.5c-1.391.417-4.871,1.948-8.488.278-3.618-1.53-2.783-5.009-.974-6.819,1.948-1.67,3.757-4.174,10.993-4.174,7.792,0,17.672.417,20.872.557,3.062,0,5.984,0,7.653-.7,1.67-.557,4.592-2.365,4.87-.278.278,1.809-1.113,2.922-2.783,3.34a75.3,75.3,0,0,1-10.3,1.113c-2.227,0-13.776-.417-15.167-.556a25.007,25.007,0,0,0-7.375,0,9.385,9.385,0,0,0-5.427,2.5c-.835.835-1.949,3.062,1.809,2.366a12.846,12.846,0,0,0,3.2-.835Z" transform="translate(-17.695 -77.769)"/>
      <path id="Path_2128" data-name="Path 2128" d="M15.131,109.14s-1.252-1.67,0-2.5a1.7,1.7,0,0,1,2.644.557c1.113,1.392,4.591,5.287,9.323.975,1.948-1.81,7.375-8.767,12.106-15.029,1.53-2.087,3.757-5.149,5.566-5.149,1.948-.139,2.5.417,1.53,1.53-.974,1.252-13.914,17.812-16.142,20.176-3.061,3.48-9.879,6.679-15.028-.556ZM53.675,95.5A2.172,2.172,0,0,0,55.9,93.416a2.227,2.227,0,0,0-4.453,0A2.172,2.172,0,0,0,53.675,95.5Zm51.207-1.948a2.2,2.2,0,0,0,2.227-2.169c0-.019,0-.038,0-.057a2.231,2.231,0,0,0-4.453,0,2.2,2.2,0,0,0,2.171,2.227Z" transform="translate(-14.574 -80.33)"/>
    </g>
  </g>
</svg>
